Coordinates
version=1
nRows=53
nColumns=11
inDegrees=yes

Units are S.I. units (second, meters, Newtons, ...)
If the header above contains a line with 'inDegrees', this indicates whether rotational values are in degrees (yes) or radians (no).

endheader
time	pelvis_tilt	pelvis_tx	pelvis_ty	hip_flexion_l	hip_flexion_r	knee_angle_l	knee_angle_r	ankle_angle_l	ankle_angle_r	lumbar_extension
      3.51000000	     45.89033518	      0.62375014	      1.11514672	     27.08257113	     39.21009592	    -67.51099561	     -7.86229563	    -22.80654932	    -18.28781162	    -51.59156505
      3.52000000	     45.87897447	      0.62374891	      1.11511103	     27.10278130	     39.17416520	    -67.52218327	     -8.22180331	    -22.81109963	    -18.27572527	    -51.58608971
      3.53000000	     45.85720245	      0.62369274	      1.11505854	     27.13180672	     39.13884374	    -67.52418359	     -8.66955317	    -22.81732863	    -18.27186327	    -51.57685488
      3.54000000	     45.82721637	      0.62381049	      1.11516642	     27.14223953	     39.05644952	    -67.52048204	     -9.27790377	    -22.81986343	    -18.26813054	    -51.53260640
      3.55000000	     45.66401649	      0.62401576	      1.11502331	     27.33070973	     39.11076576	    -67.53331970	     -9.97385102	    -22.84432574	    -17.51541519	    -51.35104885
      3.56000000	     45.62986780	      0.62399676	      1.11502245	     27.35809637	     38.98360942	    -67.52598379	    -10.79934539	    -22.84304439	    -17.53034515	    -51.33139512
      3.57000000	     45.42974160	      0.62418757	      1.11486642	     27.59091790	     39.00702863	    -67.55669445	    -11.82562380	    -22.86370514	    -17.84629703	    -51.11585973
      3.58000000	     45.21240203	      0.62442791	      1.11468203	     27.83916409	     38.99142207	    -67.58104675	    -12.80951813	    -22.89714214	    -18.49916748	    -50.88635853
      3.59000000	     45.03774269	      0.62467890	      1.11452796	     28.02716862	     38.86809165	    -67.59801883	    -13.94025383	    -22.92037614	    -19.50318828	    -50.69477313
      3.60000000	     44.79819089	      0.62477270	      1.11448671	     28.26294963	     38.78971998	    -67.56135222	    -15.67095843	    -22.91520927	    -25.31977692	    -50.46884137
      3.61000000	     44.57488578	      0.62516375	      1.11418966	     28.53228677	     38.59375806	    -67.62882100	    -17.05074898	    -22.92414919	    -25.93721624	    -50.20304938
      3.62000000	     44.45457220	      0.62548306	      1.11423585	     28.63833873	     38.18039789	    -67.64157281	    -18.43498904	    -22.97784583	    -26.52141190	    -50.05734715
      3.63000000	     44.28784893	      0.62583778	      1.11416575	     28.81050612	     37.74713648	    -67.66877580	    -19.84229446	    -22.93324572	    -27.44871000	    -49.85761065
      3.64000000	     44.06491761	      0.62618772	      1.11411967	     29.03246721	     37.31791306	    -67.67785945	    -21.27079217	    -22.91377468	    -28.45378861	    -49.59711894
      3.65000000	     43.91945657	      0.62650798	      1.11417015	     29.15685908	     36.74425666	    -67.67504750	    -22.76932949	    -22.92947372	    -28.53487562	    -49.42163370
      3.66000000	     43.72519612	      0.62678386	      1.11415060	     29.34531908	     36.18991478	    -67.66967479	    -24.35519605	    -23.00682559	    -28.85429871	    -49.20844520
      3.67000000	     43.54659177	      0.62708517	      1.11418746	     29.52932608	     35.53211776	    -67.67557676	    -25.95766020	    -23.02972213	    -28.94169071	    -49.00055887
      3.68000000	     43.24593008	      0.62740469	      1.11400319	     29.85354457	     35.04803325	    -67.69081221	    -27.67846013	    -23.10241207	    -28.84720256	    -48.66819203
      3.69000000	     43.05766152	      0.62764771	      1.11400059	     30.03299208	     34.38190097	    -67.66907374	    -29.43285670	    -23.11059758	    -28.91962224	    -48.46068486
      3.70000000	     42.74875537	      0.62791650	      1.11401939	     30.34985859	     33.85818879	    -67.65490252	    -31.25932279	    -23.13094922	    -29.12385106	    -48.11590538
      3.71000000	     42.54821244	      0.62813984	      1.11423402	     30.53398788	     33.19466576	    -67.60808590	    -33.13093905	    -23.14972990	    -29.20695311	    -47.89030859
      3.72000000	     42.20843752	      0.62848141	      1.11422556	     30.90603049	     32.74407739	    -67.60488039	    -35.13549985	    -23.26706982	    -29.59787036	    -47.49315936
      3.73000000	     41.96398016	      0.62875720	      1.11443475	     31.15259217	     32.19169885	    -67.56061314	    -37.13502495	    -23.43886685	    -30.47270136	    -47.20272997
      3.74000000	     41.73776891	      0.62906614	      1.11472533	     31.37818471	     31.64533214	    -67.50090068	    -39.25985953	    -23.22622393	    -31.36078179	    -46.91945463
      3.75000000	     41.43135436	      0.62932671	      1.11472266	     31.73169939	     31.27322204	    -67.46915945	    -41.37276293	    -23.13590889	    -32.67308011	    -46.55059525
      3.76000000	     41.15381742	      0.62957039	      1.11495085	     32.02741884	     30.87281878	    -67.40057628	    -43.58773251	    -23.10073611	    -33.82933284	    -46.21934671
      3.77000000	     41.18594592	      0.63009203	      1.11526414	     32.01902693	     29.97276476	    -67.43586019	    -45.27726943	    -22.96707338	    -32.88463227	    -46.12971397
      3.78000000	     40.91196134	      0.63025435	      1.11552809	     32.30887100	     29.78185618	    -67.36872031	    -47.86916468	    -22.74924349	    -33.28562126	    -45.79623208
      3.79000000	     40.84822824	      0.63051987	      1.11613992	     32.37700168	     29.36416299	    -67.22741896	    -50.45788512	    -22.76708272	    -33.39794983	    -45.64932973
      3.80000000	     40.59024033	      0.63085357	      1.11633866	     32.66888837	     29.31834102	    -67.14074265	    -53.26889563	    -22.79396230	    -33.53445350	    -45.30835532
      3.81000000	     40.45422756	      0.63103724	      1.11661544	     32.82253225	     29.20319690	    -67.03078595	    -56.10754352	    -22.77658401	    -33.74899314	    -45.09502208
      3.82000000	     40.22404089	      0.63128024	      1.11656529	     33.11430733	     29.31145473	    -66.96456320	    -58.97434251	    -22.76529506	    -34.21835501	    -44.78756213
      3.83000000	     40.01129196	      0.63148119	      1.11660906	     33.36141430	     29.45813497	    -66.86321522	    -61.90286362	    -22.71620723	    -34.55813145	    -44.49588765
      3.84000000	     39.79302507	      0.63155587	      1.11661264	     33.65184115	     29.67685487	    -66.77311606	    -64.76965416	    -22.81229541	    -35.01380135	    -44.19839791
      3.85000000	     39.56379520	      0.63163310	      1.11653198	     33.93465351	     29.95039716	    -66.65310940	    -67.61702232	    -22.76964220	    -35.19391091	    -43.91245692
      3.86000000	     39.25809657	      0.63188768	      1.11650704	     34.26928531	     30.31201113	    -66.47158212	    -70.41232067	    -22.82610387	    -35.26899507	    -43.51575160
      3.87000000	     39.05991011	      0.63183804	      1.11637357	     34.52857604	     30.61424996	    -66.36480998	    -73.08645194	    -23.06227125	    -35.50248675	    -43.24412694
      3.88000000	     38.98348282	      0.63143186	      1.11614652	     34.66527990	     30.85235168	    -66.21464132	    -75.67586020	    -23.10243481	    -35.72731211	    -43.17025317
      3.89000000	     38.81866971	      0.63125114	      1.11601926	     34.86627575	     31.20654728	    -66.02357543	    -78.13663411	    -23.11675138	    -35.84477725	    -42.96272601
      3.90000000	     38.67934485	      0.63097843	      1.11583931	     35.05007655	     31.61128527	    -65.85683901	    -80.54374645	    -23.21420240	    -36.07092409	    -42.79436434
      3.91000000	     38.47794157	      0.63086715	      1.11581710	     35.26749743	     32.01488800	    -65.66882409	    -82.65604671	    -23.39218381	    -36.21031391	    -42.53847765
      3.92000000	     38.49374250	      0.63015247	      1.11554227	     35.33361174	     32.30920368	    -65.52512422	    -84.73991368	    -23.22717122	    -36.14605832	    -42.57535529
      3.93000000	     38.48238069	      0.62965093	      1.11543196	     35.37664076	     32.63463979	    -65.35157784	    -86.69983065	    -23.29396317	    -35.93483193	    -42.54200367
      3.94000000	     38.42526870	      0.62911356	      1.11525909	     35.47033452	     33.00552957	    -65.17720423	    -88.38334990	    -23.17974300	    -35.84281232	    -42.48045701
      3.95000000	     38.38553104	      0.62856411	      1.11508276	     35.57298347	     33.37704405	    -65.05017095	    -89.93826535	    -23.28713382	    -35.65135088	    -42.42614071
      3.96000000	     38.35309717	      0.62800719	      1.11499968	     35.65809867	     33.77655816	    -64.90103325	    -91.36472734	    -23.24688552	    -35.30688646	    -42.41783098
      3.97000000	     38.29636563	      0.62746263	      1.11482238	     35.76611004	     34.17194615	    -64.77566326	    -92.51476845	    -23.25480865	    -35.27365876	    -42.36222385
      3.98000000	     38.23980667	      0.62693609	      1.11467205	     35.86158065	     34.57252333	    -64.64607974	    -93.49097037	    -23.18187729	    -35.06042776	    -42.31028804
      3.99000000	     38.20275283	      0.62641468	      1.11452601	     35.94960887	     34.99151794	    -64.56022121	    -94.39824750	    -23.11982782	    -34.72033834	    -42.28137538
      4.00000000	     38.14965249	      0.62592320	      1.11442032	     36.03928909	     35.34474995	    -64.43537736	    -94.94986752	    -23.10675598	    -34.54112996	    -42.24193857
      4.01000000	     38.09450383	      0.62548332	      1.11430583	     36.13309836	     35.68557020	    -64.32889128	    -95.33667762	    -23.10726726	    -34.37079975	    -42.20415281
      4.02000000	     38.02343500	      0.62512605	      1.11418222	     36.24247420	     36.01823305	    -64.24243321	    -95.55099420	    -23.10247242	    -34.05411586	    -42.13982927
      4.03000000	     37.96318872	      0.62480300	      1.11406423	     36.33441924	     36.30768946	    -64.16104305	    -95.58462388	    -23.17723270	    -33.66830607	    -42.08521109
